{"accessors":[{"bufferView":2,"componentType":5126,"count":4429,"max":[3.066389560699463,1.28607177734375,3.7460734844207764],"min":[-3.066389560699463,-1.4611120223999023,-2.4335155487060547],"type":"VEC3"},{"bufferView":2,"byteOffset":53148,"componentType":5126,"count":4429,"max":[1,0.9997450113296509,0.9991294145584106],"min":[-1,-0.9996837377548218,-0.9999977350234985],"type":"VEC3"},{"bufferView":1,"componentType":5126,"count":4429,"max":[0.7500003576278687,0.8750003576278687],"min":[0.3733537793159485,0.3750000596046448],"type":"VEC2"},{"bufferView":0,"componentType":5125,"count":21876,"type":"SCALAR"},{"bufferView":2,"byteOffset":106296,"componentType":5126,"count":1357,"max":[1.4007208347320557,1.3572391271591187,-0.6088255643844604],"min":[-1.4007208347320557,-1.5251673460006714,-1.9134730100631714],"type":"VEC3"},{"bufferView":2,"byteOffset":122580,"componentType":5126,"count":1357,"max":[0.9999769926071167,0.9978047013282776,0.9998339414596558],"min":[-0.9999769926071167,-0.9989725947380066,-0.9999284744262695],"type":"VEC3"},{"bufferView":1,"byteOffset":35432,"componentType":5126,"count":1357,"max":[0.6935914754867554,0.7786481380462646],"min":[0.1326000988483429,0.21598601341247559],"type":"VEC2"},{"bufferView":0,"byteOffset":87504,"componentType":5125,"count":7536,"type":"SCALAR"},{"bufferView":2,"byteOffset":138864,"componentType":5126,"count":494,"max":[1.000000238418579,0.9931527972221375,0.9806353449821472],"min":[-0.9999998211860657,-0.9931533932685852,-1.0177786350250244],"type":"VEC3"},{"bufferView":2,"byteOffset":144792,"componentType":5126,"count":494,"max":[1,0.9979637265205383,0.9958099126815796],"min":[-1,-0.9979637265205383,-0.9998301267623901],"type":"VEC3"},{"bufferView":1,"byteOffset":46288,"componentType":5126,"count":494,"max":[1.000000238418579,0.8750001192092896],"min":[0,0],"type":"VEC2"},{"bufferView":0,"byteOffset":117648,"componentType":5125,"count":2592,"type":"SCALAR"},{"bufferView":2,"byteOffset":150720,"componentType":5126,"count":66,"max":[0.08979985117912292,0.17330440878868103,0.9894126653671265],"min":[-0.3739054501056671,-0.2872260808944702,0.8767455816268921],"type":"VEC3"},{"bufferView":2,"byteOffset":151512,"componentType":5126,"count":66,"max":[0.24799837172031403,0.10767267644405365,0.9979851245880127],"min":[-0.475919246673584,-0.49533236026763916,0.8412014245986938],"type":"VEC3"},{"bufferView":1,"byteOffset":50240,"componentType":5126,"count":66,"max":[1.000000238418579,0.9375001192092896],"min":[8.940696716308594e-8,0.8749998807907104],"type":"VEC2"},{"bufferView":0,"byteOffset":128016,"componentType":5125,"count":282,"type":"SCALAR"},{"bufferView":2,"byteOffset":152304,"componentType":5126,"count":327,"max":[1.1373543739318848,1.4024226665496826,0.044481560587882996],"min":[-0.7323558926582336,-0.17827335000038147,-0.8254966139793396],"type":"VEC3"},{"bufferView":2,"byteOffset":156228,"componentType":5126,"count":327,"max":[0.8150518536567688,0.9073271155357361,0.9960302114486694],"min":[-0.9460062384605408,-0.973395824432373,-0.9891473054885864],"type":"VEC3"},{"bufferView":1,"byteOffset":50768,"componentType":5126,"count":327,"max":[1.0000001192092896,1.0000001192092896],"min":[0,0],"type":"VEC2"},{"bufferView":0,"byteOffset":129144,"componentType":5125,"count":1392,"type":"SCALAR"},{"bufferView":2,"byteOffset":160152,"componentType":5126,"count":327,"max":[1.1373543739318848,1.4024226665496826,0.044481560587882996],"min":[-0.7323558926582336,-0.17827335000038147,-0.8254966139793396],"type":"VEC3"},{"bufferView":2,"byteOffset":164076,"componentType":5126,"count":327,"max":[0.8150518536567688,0.9073271155357361,0.9960302114486694],"min":[-0.9460062384605408,-0.973395824432373,-0.9891473054885864],"type":"VEC3"},{"bufferView":1,"byteOffset":53384,"componentType":5126,"count":327,"max":[1.0000001192092896,1.0000001192092896],"min":[0,0],"type":"VEC2"},{"bufferView":0,"byteOffset":134712,"componentType":5125,"count":1392,"type":"SCALAR"},{"bufferView":2,"byteOffset":168000,"componentType":5126,"count":494,"max":[1.000000238418579,0.9931527972221375,0.9814666509628296],"min":[-0.9999998211860657,-0.9931533932685852,-1.0177786350250244],"type":"VEC3"},{"bufferView":2,"byteOffset":173928,"componentType":5126,"count":494,"max":[1,0.9979637265205383,0.9958757162094116],"min":[-1,-0.9979637265205383,-0.9998301267623901],"type":"VEC3"},{"bufferView":1,"byteOffset":56000,"componentType":5126,"count":494,"max":[1.000000238418579,0.8750001192092896],"min":[0,0],"type":"VEC2"},{"bufferView":0,"byteOffset":140280,"componentType":5125,"count":2592,"type":"SCALAR"},{"bufferView":2,"byteOffset":179856,"componentType":5126,"count":66,"max":[0.40785059332847595,0.17882587015628815,0.9904534220695496],"min":[-0.06692324578762054,-0.29269737005233765,0.8750970959663391],"type":"VEC3"},{"bufferView":2,"byteOffset":180648,"componentType":5126,"count":66,"max":[0.5455014705657959,0.12198520451784134,0.9979851245880127],"min":[-0.24158687889575958,-0.5031106472015381,0.8074705600738525],"type":"VEC3"},{"bufferView":1,"byteOffset":59952,"componentType":5126,"count":66,"max":[1.000000238418579,0.9375001192092896],"min":[8.940696716308594e-8,0.8749998807907104],"type":"VEC2"},{"bufferView":0,"byteOffset":150648,"componentType":5125,"count":282,"type":"SCALAR"}],"asset":{"extras":{"author":"Surya.W.A (https://sketchfab.com/wahyusuryaxmm)","license":"CC-BY-4.0 (http://creativecommons.org/licenses/by/4.0/)","source":"https://sketchfab.com/3d-models/patrick-star-efd56cae2f3845ed805adc2bc12d7443","title":"Patrick Star"},"generator":"Sketchfab-13.31.0","version":"2.0"},"bufferViews":[{"buffer":0,"byteLength":151776,"name":"floatBufferViews","target":34963},{"buffer":0,"byteLength":60480,"byteOffset":151776,"byteStride":8,"name":"floatBufferViews","target":34962},{"buffer":0,"byteLength":181440,"byteOffset":212256,"byteStride":12,"name":"floatBufferViews","target":34962}],"buffers":[{"byteLength":393696,"uri":"data:application/octet-stream;base64,"}],"images":[{"uri":"data:application/octet-stream;base64,"}],"materials":[{"doubleSided":true,"name":"Material.003","pbrMetallicRoughness":{"baseColorFactor":[0.828292110066717,0.1530380882959073,0.18362793130124994,1],"metallicFactor":0,"roughnessFactor":0.9896864364340022}},{"doubleSided":true,"name":"Material.006","pbrMetallicRoughness":{"baseColorTexture":{"index":0},"metallicFactor":0,"roughnessFactor":0.8211145618000169}},{"doubleSided":true,"name":"Material.001","pbrMetallicRoughness":{"baseColorFactor":[0.8,0.8,0.8,1],"metallicFactor":0,"roughnessFactor":0.8084720796706292}},{"doubleSided":true,"name":"Material.002","pbrMetallicRoughness":{"baseColorFactor":[0,0,0,1],"metallicFactor":0}},{"doubleSided":true,"name":"Material.004","pbrMetallicRoughness":{"baseColorFactor":[0,0,0,1],"metallicFactor":0}},{"doubleSided":true,"name":"Material.005","pbrMetallicRoughness":{"baseColorFactor":[0,0,0,1],"metallicFactor":0}}],"meshes":[{"name":"Cube.001_Material.003_0","primitives":[{"attributes":{"NORMAL":1,"POSITION":0,"TEXCOORD_0":2},"indices":3,"material":0,"mode":4}]},{"name":"Cube.002_Material.006_0","primitives":[{"attributes":{"NORMAL":5,"POSITION":4,"TEXCOORD_0":6},"indices":7,"material":1,"mode":4}]},{"name":"Sphere_Material.001_0","primitives":[{"attributes":{"NORMAL":9,"POSITION":8,"TEXCOORD_0":10},"indices":11,"material":2,"mode":4}]},{"name":"Sphere_Material.002_0","primitives":[{"attributes":{"NORMAL":13,"POSITION":12,"TEXCOORD_0":14},"indices":15,"material":3,"mode":4}]},{"name":"Plane_Material.004_0","primitives":[{"attributes":{"NORMAL":17,"POSITION":16,"TEXCOORD_0":18},"indices":19,"material":4,"mode":4}]},{"name":"Plane.001_Material.005_0","primitives":[{"attributes":{"NORMAL":21,"POSITION":20,"TEXCOORD_0":22},"indices":23,"material":5,"mode":4}]},{"name":"Sphere.001_Material.001_0","primitives":[{"attributes":{"NORMAL":25,"POSITION":24,"TEXCOORD_0":26},"indices":27,"material":2,"mode":4}]},{"name":"Sphere.001_Material.002_0","primitives":[{"attributes":{"NORMAL":29,"POSITION":28,"TEXCOORD_0":30},"indices":31,"material":3,"mode":4}]}],"nodes":[{"children":[1],"matrix":[1,0,0,0,0,2.220446049250313e-16,-1,0,0,1,2.220446049250313e-16,0,0,0,0,1],"name":"Sketchfab_model"},{"children":[2],"matrix":[0.009999999776482582,0,0,0,0,0,0.009999999776482582,0,0,-0.009999999776482582,0,0,0,0,0,1],"name":"d3179c7498734d1db0599d97cc068021.fbx"},{"children":[3,5,7,10,12,14],"name":"RootNode"},{"children":[4],"matrix":[56.22857666015625,0,0,0,0,-0.000009160797910708331,-56.228576660155504,0,0,56.228576660155504,-0.000009160797910708331,0,0,241.62844848632812,0,1],"name":"Cube.001"},{"mesh":0,"name":"Cube.001_Material.003_0"},{"children":[6],"matrix":[56.22857666015625,0,0,0,0,-0.000009160797910708331,-56.228576660155504,0,0,56.228576660155504,-0.000009160797910708331,0,0,241.62844848632812,0,1],"name":"Cube.002"},{"mesh":1,"name":"Cube.002_Material.006_0"},{"children":[8,9],"matrix":[15.10759162902832,0,0,0,0,23.315405112889124,-7.0835196791329516,0,0,3.6935471945112175,12.157310637152785,0,16.069881439208984,341.0562438964844,45.38472366333008,1],"name":"Sphere"},{"mesh":2,"name":"Sphere_Material.001_0"},{"mesh":3,"name":"Sphere_Material.002_0"},{"children":[11],"matrix":[8.87472152709961,0,0,0,0,8.8747215270996,3.8792639860772276e-7,0,0,-3.8792639860772276e-7,8.8747215270996,0,14.903369903564453,374.03955078125,34.09818649291992,1],"name":"Plane"},{"mesh":4,"name":"Plane_Material.004_0"},{"children":[13],"matrix":[-8.874700546264648,0,0,0,0,8.874721527099512,0.0000013400456687551825,0,0,-0.0000013400456687551825,8.874721527099512,0,-14.303973197937012,374.03955078125,34.09818649291992,1],"name":"Plane.001"},{"mesh":5,"name":"Plane.001_Material.005_0"},{"children":[15,16],"matrix":[15.10759162902832,0,0,0,0,23.315405112889124,-7.0835196791329516,0,0,3.6935471945112175,12.157310637152785,0,-13.358343124389648,341.0562438964844,45.38472366333008,1],"name":"Sphere.001"},{"mesh":6,"name":"Sphere.001_Material.001_0"},{"mesh":7,"name":"Sphere.001_Material.002_0"}],"samplers":[{"magFilter":9729,"minFilter":9987,"wrapS":10497,"wrapT":10497}],"scene":0,"scenes":[{"name":"Sketchfab_Scene","nodes":[0]}],"textures":[{"sampler":0,"source":0}]}